<svg id="Ebene_1" data-name="Ebene 1" xmlns="http://www.w3.org/2000/svg" viewBox="0 0 1000 352.19"><defs><style>.cls-1{fill:#242629;}.cls-2{fill:#be936a;}</style></defs><title>2019-08-12-indurad-logo-cmyk</title><path class="cls-1" d="M243.33,240.52V349.3H206.87V246.71c0-13.39-4.62-20.77-17.51-20.77-12.49,0-27.33,9.5-34.2,14.54V349.3H118.71V197.18h35.7l.51,10c13.08-8,28-12.83,40.08-12.83C226.68,194.37,243.33,211.19,243.33,240.52ZM44.85,175.32H81.3V138.88H44.85Zm801.7,173.51-33.82,2.83s-1.76-7.61-2.56-14.05c-12.58,9.11-28.78,13.87-38.55,13.87-30.29,0-52.61-13.68-52.61-48.34s26.73-53.9,80-53.9c2.37,0,4.94.08,7.65.24v-7.59c0-7.29-1.25-11.26-3.71-13.76-.95-1-4.3-3.21-14.89-3.21-16.52,0-56.13,9.26-56.13,9.26V201.47s34.49-7.1,60.24-7.1c17.86,0,30.94,3.85,38.87,11.46s12.07,20.57,12.07,38.67v74.38A132.62,132.62,0,0,0,846.55,348.83Zm-44.42-73.91c-24.44,0-46,6.63-46,24.24s10.49,21.94,21.63,21.94c8.3,0,21.95-4.32,28.91-8.25V275C805.11,275,803.61,274.92,802.13,274.92ZM676.4,194.37c-20.6,0-36.88,10.86-42.13,14.53l-.54-11.72H598.06V349.3h36.45V242.94c2-2,18.58-18.66,38.84-18.66.69,0,1.64.06,2.7.17v14.67h30.71V197.17l-1-.21A145.39,145.39,0,0,0,676.4,194.37ZM523.84,303.88s-13.28,15.5-34.1,15.5c-11.3,0-16.79-6.82-16.79-20.87V197.18H436.5V302.36c0,32.65,16.79,49.83,46.08,49.83,22.86,0,41.5-14.74,41.5-14.74l.48,11.8h35.76V197.18H523.84Zm-159.54-165h36.46V349.25H365.05l-.51-11s-17.19,14-37.5,14c-30.84,0-55.7-22.38-55.7-71.72,0-56.07,25.32-78.56,61.7-78.56,8.6,0,21.43,2.06,31.26,6.65Zm-55,136.6c0,31.69,9.72,45.79,24.7,45.79,20.24,0,30.3-13.31,30.3-13.31l0-70.63s-9.75-7.65-25.67-7.65C316.27,229.67,309.3,245.53,309.3,275.47Zm654.24-136.6H1000V349.25H964.29l-.52-11s-17.18,14-37.5,14c-30.84,0-55.7-22.38-55.7-71.72,0-56.07,25.32-78.56,61.7-78.56,8.6,0,21.44,2.06,31.27,6.65Zm-55,136.6c0,31.69,9.71,45.79,24.7,45.79,20.24,0,30.3-13.31,30.3-13.31l0-70.63s-9.74-7.65-25.67-7.65C915.51,229.67,908.54,245.53,908.54,275.47ZM0,227.31H44.86v122H81.3V197.19H0Z"/><path class="cls-2" d="M187.79,83.1v92.22H151.34v-78Zm-89.7,35v57.22h36.45V103.88ZM204.58,76.55v98.77H241v-113ZM364.31,14.22V117h36.45V0ZM311.07,35V175.32h36.45V20.78ZM257.83,55.77V175.32h36.45V41.55Z"/></svg>